<?xml version="1.0" encoding="utf-8"?>
<!-- Generator: Adobe Illustrator 19.2.0, SVG Export Plug-In . SVG Version: 6.00 Build 0)  -->
<svg version="1.1" id="Capa_1" xmlns="http://www.w3.org/2000/svg" xmlns:xlink="http://www.w3.org/1999/xlink" x="0px" y="0px"
	 viewBox="0 0 40 40" style="enable-background:new 0 0 40 40;" xml:space="preserve">
<style type="text/css">
	.st0{fill:#39B54A;}
</style>
<g>
	<path class="st0" d="M29.1,23.6c0.4-0.5,0.6-1.1,0.6-1.7c0-0.6-0.3-1.1-0.5-1.4c0.3-0.7,0.4-1.7-0.5-2.6c-0.7-0.6-1.8-0.9-3.4-0.8
		c-1.1,0.1-2,0.3-2.1,0.3h0c-0.2,0-0.4,0.1-0.7,0.1c0-0.3,0-0.9,0.5-2.4c0.6-1.8,0.6-3.1-0.1-4.1c-0.7-1-1.8-1-2.1-1
		c-0.3,0-0.6,0.1-0.8,0.4c-0.5,0.5-0.4,1.5-0.4,2c-0.6,1.5-2.1,5.1-3.4,6.1c0,0,0,0-0.1,0.1c-0.4,0.4-0.6,0.8-0.8,1.2
		c-0.2-0.1-0.5-0.2-0.8-0.2H12c-1,0-1.7,0.8-1.7,1.7v6.8c0,1,0.8,1.7,1.7,1.7h2.6c0.4,0,0.7-0.1,1-0.3l1,0.1c0.2,0,2.8,0.4,5.6,0.3
		c0.5,0,1,0.1,1.4,0.1c0.7,0,1.4-0.1,1.9-0.2c1.3-0.3,2.2-0.8,2.6-1.6c0.3-0.6,0.3-1.2,0.3-1.6c0.8-0.8,1-1.6,0.9-2.2
		C29.3,24.1,29.2,23.8,29.1,23.6z M12,28.7c-0.3,0-0.6-0.3-0.6-0.6v-6.8c0-0.3,0.3-0.6,0.6-0.6h2.6c0.3,0,0.6,0.3,0.6,0.6v6.8
		c0,0.3-0.3,0.6-0.6,0.6L12,28.7L12,28.7z M28.1,23.1c-0.2,0.2-0.2,0.5-0.1,0.7c0,0,0.2,0.3,0.2,0.7c0,0.5-0.2,1-0.8,1.4
		c-0.2,0.2-0.3,0.4-0.2,0.6c0,0,0.2,0.6-0.1,1.1c-0.3,0.5-0.9,0.9-1.8,1.1c-0.8,0.2-1.8,0.2-3,0.1c0,0,0,0-0.1,0
		c-2.7,0.1-5.4-0.3-5.4-0.3h0l-0.4-0.1c0-0.1,0-0.2,0-0.4v-6.8c0-0.2,0-0.4-0.1-0.5c0.1-0.3,0.3-0.9,0.8-1.4
		c1.9-1.5,3.7-6.5,3.8-6.7c0-0.1,0-0.2,0-0.3c-0.1-0.5,0-1,0.1-1.2c0.2,0,0.8,0.1,1.2,0.6c0.4,0.6,0.4,1.6-0.1,3
		c-0.7,2.1-0.8,3.2-0.2,3.7c0.3,0.2,0.6,0.3,0.9,0.2c0.3-0.1,0.5-0.1,0.7-0.1c0,0,0,0,0.1,0c1.3-0.3,3.6-0.5,4.4,0.3
		c0.7,0.6,0.2,1.4,0.1,1.5c-0.2,0.2-0.1,0.5,0.1,0.7c0,0,0.4,0.4,0.5,1C28.6,22.4,28.4,22.7,28.1,23.1z"/>
</g>
</svg>
